
        <svg xmlns="http://www.w3.org/2000/svg" xmlns:xlink="http://www.w3.org/1999/xlink" version="1.1" width="3171.4285714285716" 
        height="1059.7169608019703" viewBox="0 0 3171.4285714285716 1059.7169608019703">
			
			<g transform="scale(8.571428571428571) translate(10, 10)">
				<defs id="SvgjsDefs2789"></defs><g id="SvgjsG2790" featureKey="9id2mP-0" transform="matrix(0.6697351395428066,0,0,0.6697351395428066,143.70239642582828,-5.296934206928682)" fill="#62c1bf"><path xmlns="http://www.w3.org/2000/svg" d="M77.157,29.962l-8.131-0.06c-2.196,0-3.982-1.871-3.982-4.172l-0.006-7.888c0-5.477-4.541-9.933-10.122-9.933H40.084  c-5.581,0-10.123,4.456-10.123,9.933l0.053,22.785c0,5.043,3.853,9.219,8.82,9.848H55.47c1.831,0.205,3.301,1.545,3.617,3.263  v23.419c0,2.195-1.872,3.981-4.172,3.981H40.084c-2.3,0-4.172-1.786-4.172-3.981v-9.306c-0.549-4.699-4.453-8.411-9.297-8.765  h-8.772c-2.196,0-3.982-1.871-3.982-4.172v-14.83c0-2.301,1.786-4.172,3.982-4.172h6.168v-5.951h-6.168  c-5.478,0-9.933,4.541-9.933,10.123v14.83c0,5.582,4.455,10.123,9.933,10.123h8.51c1.825,0.207,3.29,1.542,3.608,3.252v8.867  c0,5.477,4.542,9.933,10.123,9.933h14.831c5.581,0,10.122-4.456,10.122-9.933V60.596h0.067l-0.067-7.294  c-0.544-4.709-4.457-8.43-9.313-8.777H39.282c-1.892-0.377-3.316-1.98-3.316-3.896l-0.053-22.785c0-2.195,1.872-3.981,4.172-3.981  h14.831c2.3,0,4.172,1.786,4.172,3.981l0.005,7.888c0,5.581,4.457,10.123,9.934,10.123l8.131,0.06c2.195,0,3.982,1.871,3.982,4.172  v14.83c0,2.301-1.787,4.172-3.982,4.172h-6.168v5.951h6.168c5.477,0,9.933-4.541,9.933-10.123v-14.83  C87.089,34.503,82.633,29.962,77.157,29.962z"></path></g><g id="SvgjsG2791" featureKey="zfl5BF-0" transform="matrix(1.0325092591200498,0,0,1.0325092591200498,-1.445512076558264,65.87428481743335)" fill="#ffffff"><path d="M10.04 13.219999999999999 c0.94 0.72 1.44 1.76 1.44 2.88 c0 1.14 -0.5 2.18 -1.44 2.9 c-0.8 0.66 -1.88 1 -2.98 1 l-5.66 0 l0 -12.78 l5.02 0 c0.98 0 1.9 0.3 2.62 0.88 c0.84 0.66 1.28 1.56 1.28 2.58 c0 0.8 -0.28 1.56 -0.82 2.16 c0.18 0.12 0.38 0.24 0.54 0.38 z M6.42 9.22 l-3.02 0 l0 2.92 l3.02 0 c0.94 0 1.9 -0.54 1.9 -1.46 s-0.96 -1.46 -1.9 -1.46 z M7.06 18 c1.18 0 2.42 -0.7 2.42 -1.9 c0 -1.18 -1.24 -1.9 -2.42 -1.9 l-3.66 0 l0 3.8 l3.66 0 z M18.240000000000002 20.44 c-1.32 0 -2.56 -0.5 -3.46 -1.4 c-0.86 -0.84 -1.34 -1.96 -1.34 -3.08 l0 -8.76 l2 0 l0 8.76 c0 1.2 1.08 2.48 2.8 2.48 c1.74 0 2.8 -1.28 2.8 -2.48 l0 -8.76 l2 0 l0 8.76 c0 1.12 -0.48 2.24 -1.32 3.08 c-0.9 0.9 -2.14 1.4 -3.48 1.4 z M30.740000000000002 20.18 c-1.92 0 -4.38 -0.54 -5.18 -0.84 l0.7 -1.88 c0.74 0.28 3.84 0.92 5.3 0.66 c0.5 -0.08 0.9 -0.54 0.98 -1.06 c0.08 -0.68 -0.42 -1.34 -1.4 -1.8 c-0.6 -0.28 -1.72 -0.76 -2.62 -1.14 c-0.52 -0.22 -0.98 -0.42 -1.26 -0.54 c-0.72 -0.32 -1.32 -0.82 -1.72 -1.4 c-0.38 -0.58 -0.58 -1.24 -0.56 -1.92 c0.02 -0.64 0.22 -1.24 0.6 -1.76 c0.38 -0.54 0.92 -0.94 1.56 -1.18 c0.86 -0.34 2.1 -0.34 3.68 -0.06 c1.2 0.24 2.28 0.58 2.74 0.74 l-0.7 1.88 c-0.36 -0.14 -1.34 -0.44 -2.42 -0.64 c-1.64 -0.32 -2.36 -0.14 -2.58 -0.06 c-0.54 0.2 -0.86 0.62 -0.88 1.14 c-0.02 0.58 0.4 1.12 1.1 1.44 c0.26 0.1 0.72 0.3 1.24 0.52 c0.9 0.4 2.04 0.88 2.68 1.18 c0.92 0.44 1.6 1 2.04 1.7 c0.42 0.68 0.58 1.42 0.48 2.18 c-0.18 1.38 -1.26 2.5 -2.6 2.74 c-0.36 0.06 -0.76 0.1 -1.18 0.1 z  M38.74 20 l-2 0 l0 -12.78 l2 0 l0 12.78 z M49.14 7.199999999999999 l2 0 l0 12.8 l-2.24 0 l-5.48 -9.26 l0 9.26 l-2 0 l0 -12.8 l1.1 0 l0.02 0 l1.12 0 l5.48 9.28 l0 -9.28 z M55.9 17.98 l5.42 0 l0 2 l-7.42 0 l0 -12.78 l6.96 0 l0 2 l-4.96 0 l0 2.96 l4.6 0 l0 2 l-4.6 0 l0 3.82 z M68.66 20.18 c-1.92 0 -4.38 -0.54 -5.18 -0.84 l0.7 -1.88 c0.74 0.28 3.84 0.92 5.3 0.66 c0.5 -0.08 0.9 -0.54 0.98 -1.06 c0.08 -0.68 -0.42 -1.34 -1.4 -1.8 c-0.6 -0.28 -1.72 -0.76 -2.62 -1.14 c-0.52 -0.22 -0.98 -0.42 -1.26 -0.54 c-0.72 -0.32 -1.32 -0.82 -1.72 -1.4 c-0.38 -0.58 -0.58 -1.24 -0.56 -1.92 c0.02 -0.64 0.22 -1.24 0.6 -1.76 c0.38 -0.54 0.92 -0.94 1.56 -1.18 c0.86 -0.34 2.1 -0.34 3.68 -0.06 c1.2 0.24 2.28 0.58 2.74 0.74 l-0.7 1.88 c-0.36 -0.14 -1.34 -0.44 -2.42 -0.64 c-1.64 -0.32 -2.36 -0.14 -2.58 -0.06 c-0.54 0.2 -0.86 0.62 -0.88 1.14 c-0.02 0.58 0.4 1.12 1.1 1.44 c0.26 0.1 0.72 0.3 1.24 0.52 c0.9 0.4 2.04 0.88 2.68 1.18 c0.92 0.44 1.6 1 2.04 1.7 c0.42 0.68 0.58 1.42 0.48 2.18 c-0.18 1.38 -1.26 2.5 -2.6 2.74 c-0.36 0.06 -0.76 0.1 -1.18 0.1 z  M79.8 20.18 c-1.92 0 -4.38 -0.54 -5.18 -0.84 l0.7 -1.88 c0.74 0.28 3.84 0.92 5.3 0.66 c0.5 -0.08 0.9 -0.54 0.98 -1.06 c0.08 -0.68 -0.42 -1.34 -1.4 -1.8 c-0.6 -0.28 -1.72 -0.76 -2.62 -1.14 c-0.52 -0.22 -0.98 -0.42 -1.26 -0.54 c-0.72 -0.32 -1.32 -0.82 -1.72 -1.4 c-0.38 -0.58 -0.58 -1.24 -0.56 -1.92 c0.02 -0.64 0.22 -1.24 0.6 -1.76 c0.38 -0.54 0.92 -0.94 1.56 -1.18 c0.86 -0.34 2.1 -0.34 3.68 -0.06 c1.2 0.24 2.28 0.58 2.74 0.74 l-0.7 1.88 c-0.36 -0.14 -1.34 -0.44 -2.42 -0.64 c-1.64 -0.32 -2.36 -0.14 -2.58 -0.06 c-0.54 0.2 -0.86 0.62 -0.88 1.14 c-0.02 0.58 0.4 1.12 1.1 1.44 c0.26 0.1 0.72 0.3 1.24 0.52 c0.9 0.4 2.04 0.88 2.68 1.18 c0.92 0.44 1.6 1 2.04 1.7 c0.42 0.68 0.58 1.42 0.48 2.18 c-0.18 1.38 -1.26 2.5 -2.6 2.74 c-0.36 0.06 -0.76 0.1 -1.18 0.1 z  M100.08 8.36 c0.86 0.78 1.34 1.9 1.34 3.1 c0 1.22 -0.48 2.32 -1.34 3.12 c-0.4 0.36 -0.86 0.66 -1.38 0.86 c-0.5 0.18 -1.04 0.28 -1.58 0.28 l-3.48 0 l0 4.28 l-2 0 l0 -12.8 l5.48 0 c0.54 0 1.08 0.1 1.58 0.3 c0.52 0.2 0.98 0.48 1.38 0.86 z M97.11999999999999 13.719999999999999 c1.1 0 2.3 -0.78 2.3 -2.26 s-1.2 -2.26 -2.3 -2.26 l-3.48 0 l0 4.52 l3.48 0 z M108.66 20.18 c-1.92 0 -4.38 -0.54 -5.18 -0.84 l0.7 -1.88 c0.74 0.28 3.84 0.92 5.3 0.66 c0.5 -0.08 0.9 -0.54 0.98 -1.06 c0.08 -0.68 -0.42 -1.34 -1.4 -1.8 c-0.6 -0.28 -1.72 -0.76 -2.62 -1.14 c-0.52 -0.22 -0.98 -0.42 -1.26 -0.54 c-0.72 -0.32 -1.32 -0.82 -1.72 -1.4 c-0.38 -0.58 -0.58 -1.24 -0.56 -1.92 c0.02 -0.64 0.22 -1.24 0.6 -1.76 c0.38 -0.54 0.92 -0.94 1.56 -1.18 c0.86 -0.34 2.1 -0.34 3.68 -0.06 c1.2 0.24 2.28 0.58 2.74 0.74 l-0.7 1.88 c-0.36 -0.14 -1.34 -0.44 -2.42 -0.64 c-1.64 -0.32 -2.36 -0.14 -2.58 -0.06 c-0.54 0.2 -0.86 0.62 -0.88 1.14 c-0.02 0.58 0.4 1.12 1.1 1.44 c0.26 0.1 0.72 0.3 1.24 0.52 c0.9 0.4 2.04 0.88 2.68 1.18 c0.92 0.44 1.6 1 2.04 1.7 c0.42 0.68 0.58 1.42 0.48 2.18 c-0.18 1.38 -1.26 2.5 -2.6 2.74 c-0.36 0.06 -0.76 0.1 -1.18 0.1 z  M123.79999999999998 7.199999999999999 l0 0.02 c0.04 1.1 -0.16 2.26 -0.56 3.4 c-0.78 2.24 -2.2 4.04 -3.38 5.26 l0 4.12 l-2 0 l0 -4.12 c-1.2 -1.22 -2.62 -3.02 -3.4 -5.26 c-0.4 -1.14 -0.6 -2.3 -0.56 -3.4 l0 -0.02 l1.98 0 c-0.1 2.86 1.7 5.38 2.98 6.8 c1.26 -1.42 3.06 -3.94 2.96 -6.8 l1.98 0 z M133.94 17.42 c0.2 -0.06 0.38 -0.12 0.52 -0.16 l0.58 1.92 c-0.14 0.04 -0.3 0.08 -0.48 0.14 c-0.8 0.26 -2 0.66 -3.28 0.82 c-0.4 0.06 -0.78 0.08 -1.14 0.08 c-1.18 0 -2.14 -0.26 -2.88 -0.8 c-1.14 -0.82 -1.7 -2.2 -1.7 -4.08 l0 -3.54 c0 -1.88 0.56 -3.26 1.7 -4.08 c0.98 -0.7 2.32 -0.96 4.02 -0.72 c1.28 0.16 2.48 0.56 3.28 0.82 c0.18 0.06 0.34 0.1 0.48 0.14 l-0.58 1.92 c-0.14 -0.04 -0.32 -0.1 -0.52 -0.16 c-0.72 -0.24 -1.82 -0.6 -2.92 -0.74 c-1.16 -0.16 -2.04 -0.04 -2.58 0.36 c-0.58 0.42 -0.88 1.26 -0.88 2.46 l0 3.54 c0 1.2 0.3 2.04 0.88 2.46 c0.54 0.4 1.42 0.52 2.58 0.36 c1.1 -0.14 2.2 -0.5 2.92 -0.74 z M144.88 7.220000000000001 l2 0 l0 12.78 l-2 0 l0 -5.82 l-5.56 0 l0 5.82 l-2 0 l0 -12.78 l2 0 l0 4.96 l5.56 0 l0 -4.96 z M159.15999999999997 8.9 c0.92 1.14 1.4 2.72 1.4 4.7 s-0.48 3.56 -1.4 4.7 c-0.5 0.62 -1.14 1.08 -1.88 1.4 s-1.58 0.48 -2.52 0.48 s-1.78 -0.16 -2.52 -0.48 s-1.38 -0.78 -1.88 -1.4 c-0.92 -1.14 -1.4 -2.72 -1.4 -4.7 s0.48 -3.56 1.4 -4.7 c0.5 -0.62 1.14 -1.1 1.88 -1.42 s1.58 -0.48 2.52 -0.48 s1.78 0.16 2.52 0.48 s1.38 0.8 1.88 1.42 z M157.61999999999998 17.04 c0.62 -0.76 0.94 -1.96 0.94 -3.44 c0 -1.5 -0.32 -2.68 -0.94 -3.44 s-1.58 -1.16 -2.86 -1.16 c-1.26 0 -2.22 0.4 -2.84 1.16 s-0.96 1.94 -0.96 3.44 c0 1.48 0.34 2.68 0.96 3.44 s1.58 1.14 2.84 1.14 c1.28 0 2.24 -0.38 2.86 -1.14 z M164.65999999999997 18 l5.42 0 l0 2 l-7.42 0 l0 -12.78 l2 0 l0 10.78 z M180.57999999999998 8.9 c0.92 1.14 1.4 2.72 1.4 4.7 s-0.48 3.56 -1.4 4.7 c-0.5 0.62 -1.14 1.08 -1.88 1.4 s-1.58 0.48 -2.52 0.48 s-1.78 -0.16 -2.52 -0.48 s-1.38 -0.78 -1.88 -1.4 c-0.92 -1.14 -1.4 -2.72 -1.4 -4.7 s0.48 -3.56 1.4 -4.7 c0.5 -0.62 1.14 -1.1 1.88 -1.42 s1.58 -0.48 2.52 -0.48 s1.78 0.16 2.52 0.48 s1.38 0.8 1.88 1.42 z M179.04 17.04 c0.62 -0.76 0.94 -1.96 0.94 -3.44 c0 -1.5 -0.32 -2.68 -0.94 -3.44 s-1.58 -1.16 -2.86 -1.16 c-1.26 0 -2.22 0.4 -2.84 1.16 s-0.96 1.94 -0.96 3.44 c0 1.48 0.34 2.68 0.96 3.44 s1.58 1.14 2.84 1.14 c1.28 0 2.24 -0.38 2.86 -1.14 z M188.93999999999997 12.64 l5.1 0 l0 6.28 l-0.72 0.22 c-0.12 0.04 -0.28 0.08 -0.48 0.14 c-0.78 0.26 -2 0.66 -3.28 0.82 c-0.4 0.06 -0.78 0.08 -1.14 0.08 c-1.16 0 -2.12 -0.26 -2.88 -0.8 c-1.12 -0.82 -1.7 -2.2 -1.7 -4.08 l0 -3.52 c0 -1.88 0.58 -3.24 1.7 -4.06 c0.98 -0.72 2.34 -0.96 4.02 -0.74 c1.28 0.16 2.5 0.56 3.28 0.82 c0.2 0.06 0.36 0.12 0.48 0.16 l-0.56 1.9 c-0.16 -0.04 -0.32 -0.1 -0.52 -0.16 c-0.74 -0.24 -1.84 -0.6 -2.94 -0.74 c-1.16 -0.14 -2.04 -0.02 -2.58 0.38 c-0.58 0.42 -0.88 1.24 -0.88 2.44 l0 3.52 c0 1.2 0.3 2.04 0.88 2.46 c0.54 0.4 1.42 0.52 2.58 0.36 c1.02 -0.12 2.02 -0.44 2.74 -0.68 l0 -2.8 l-3.1 0 l0 -2 z M198.66 20 l-2 0 l0 -12.78 l2 0 l0 12.78 z M206.6 20.18 c-1.92 0 -4.38 -0.54 -5.18 -0.84 l0.7 -1.88 c0.74 0.28 3.84 0.92 5.3 0.66 c0.5 -0.08 0.9 -0.54 0.98 -1.06 c0.08 -0.68 -0.42 -1.34 -1.4 -1.8 c-0.6 -0.28 -1.72 -0.76 -2.62 -1.14 c-0.52 -0.22 -0.98 -0.42 -1.26 -0.54 c-0.72 -0.32 -1.32 -0.82 -1.72 -1.4 c-0.38 -0.58 -0.58 -1.24 -0.56 -1.92 c0.02 -0.64 0.22 -1.24 0.6 -1.76 c0.38 -0.54 0.92 -0.94 1.56 -1.18 c0.86 -0.34 2.1 -0.34 3.68 -0.06 c1.2 0.24 2.28 0.58 2.74 0.74 l-0.7 1.88 c-0.36 -0.14 -1.34 -0.44 -2.42 -0.64 c-1.64 -0.32 -2.36 -0.14 -2.58 -0.06 c-0.54 0.2 -0.86 0.62 -0.88 1.14 c-0.02 0.58 0.4 1.12 1.1 1.44 c0.26 0.1 0.72 0.3 1.24 0.52 c0.9 0.4 2.04 0.88 2.68 1.18 c0.92 0.44 1.6 1 2.04 1.7 c0.42 0.68 0.58 1.42 0.48 2.18 c-0.18 1.38 -1.26 2.5 -2.6 2.74 c-0.36 0.06 -0.76 0.1 -1.18 0.1 z  M220.07999999999998 7.199999999999999 l0 2 l-3.12 0 l0 10.8 l-2 0 l0 -10.8 l-3.1 0 l0 -2 l8.22 0 z M229.5 20 l-2.02 0 l1.32 -12.8 l3.28 0 l2.46 9.86 l2.46 -9.86 l3.28 0 l1.32 12.8 l-2.02 0 l-1.08 -10.62 l-2.8 10.62 l-2.32 0 l-2.78 -10.62 z M245.78 20 l-2 0 l0 -12.78 l2 0 l0 12.78 z M258.2 9.02 c0.94 1.12 1.4 2.66 1.4 4.58 s-0.46 3.46 -1.4 4.58 c-0.5 0.6 -1.14 1.06 -1.88 1.36 s-1.58 0.46 -2.5 0.46 l-5.12 0 l0 -12.8 l5.12 0 c0.92 0 1.76 0.16 2.5 0.46 s1.38 0.76 1.88 1.36 z M256.68 16.88 c0.62 -0.74 0.92 -1.84 0.92 -3.28 s-0.3 -2.54 -0.92 -3.28 s-1.6 -1.1 -2.86 -1.1 l-3.12 0 l0 8.76 l3.12 0 c1.26 0 2.24 -0.36 2.86 -1.1 z M271.62 9.02 c0.94 1.12 1.4 2.66 1.4 4.58 s-0.46 3.46 -1.4 4.58 c-0.5 0.6 -1.14 1.06 -1.88 1.36 s-1.58 0.46 -2.5 0.46 l-5.12 0 l0 -12.8 l5.12 0 c0.92 0 1.76 0.16 2.5 0.46 s1.38 0.76 1.88 1.36 z M270.1 16.88 c0.62 -0.74 0.92 -1.84 0.92 -3.28 s-0.3 -2.54 -0.92 -3.28 s-1.6 -1.1 -2.86 -1.1 l-3.12 0 l0 8.76 l3.12 0 c1.26 0 2.24 -0.36 2.86 -1.1 z M277.42 18 l5.42 0 l0 2 l-7.42 0 l0 -12.78 l2 0 l0 10.78 z M287.12 17.98 l5.42 0 l0 2 l-7.42 0 l0 -12.78 l6.96 0 l0 2 l-4.96 0 l0 2.96 l4.6 0 l0 2 l-4.6 0 l0 3.82 z M302.78000000000003 17.98 l5.42 0 l0 2 l-7.42 0 l0 -12.78 l6.96 0 l0 2 l-4.96 0 l0 2.96 l4.6 0 l0 2 l-4.6 0 l0 3.82 z M311.74000000000007 20 l-2.08 0 l3.68 -12.78 l3.02 0 l3.7 12.78 l-2.1 0 l-1.08 -3.76 l-4.36 1.02 z M314.86000000000007 9.18 l-1.7 5.88 l3.16 -0.76 z M326.9000000000001 20.18 c-1.92 0 -4.38 -0.54 -5.18 -0.84 l0.7 -1.88 c0.74 0.28 3.84 0.92 5.3 0.66 c0.5 -0.08 0.9 -0.54 0.98 -1.06 c0.08 -0.68 -0.42 -1.34 -1.4 -1.8 c-0.6 -0.28 -1.72 -0.76 -2.62 -1.14 c-0.52 -0.22 -0.98 -0.42 -1.26 -0.54 c-0.72 -0.32 -1.32 -0.82 -1.72 -1.4 c-0.38 -0.58 -0.58 -1.24 -0.56 -1.92 c0.02 -0.64 0.22 -1.24 0.6 -1.76 c0.38 -0.54 0.92 -0.94 1.56 -1.18 c0.86 -0.34 2.1 -0.34 3.68 -0.06 c1.2 0.24 2.28 0.58 2.74 0.74 l-0.7 1.88 c-0.36 -0.14 -1.34 -0.44 -2.42 -0.64 c-1.64 -0.32 -2.36 -0.14 -2.58 -0.06 c-0.54 0.2 -0.86 0.62 -0.88 1.14 c-0.02 0.58 0.4 1.12 1.1 1.44 c0.26 0.1 0.72 0.3 1.24 0.52 c0.9 0.4 2.04 0.88 2.68 1.18 c0.92 0.44 1.6 1 2.04 1.7 c0.42 0.68 0.58 1.42 0.48 2.18 c-0.18 1.38 -1.26 2.5 -2.6 2.74 c-0.36 0.06 -0.76 0.1 -1.18 0.1 z  M340.38000000000005 7.199999999999999 l0 2 l-3.12 0 l0 10.8 l-2 0 l0 -10.8 l-3.1 0 l0 -2 l8.22 0 z"></path></g><g id="SvgjsG2792" featureKey="pYXC9J-0" transform="matrix(0.44580592954771325,0,0,0.44580592954771325,34.58094303844643,94.55699221322558)" fill="#62c1bf"><path d="M8.32 5.48 c1 0 1.9367 0.18664 2.81 0.55998 s1.59 0.92 2.15 1.64 l-1.6 1.22 c-0.86666 -1.08 -2.0066 -1.62 -3.42 -1.62 c-1.5333 0 -2.7966 0.54666 -3.79 1.64 s-1.49 2.4666 -1.49 4.12 c0 1.6 0.49 2.92 1.47 3.96 s2.25 1.56 3.81 1.56 s2.7934 -0.63334 3.7 -1.9 l1.62 1.22 c-0.56 0.74666 -1.3067 1.3467 -2.24 1.8 s-1.9733 0.68 -3.12 0.68 c-1.36 0 -2.5934 -0.33 -3.7 -0.99 s-1.98 -1.5667 -2.62 -2.72 s-0.96 -2.3634 -0.96 -3.63 c0 -2.1866 0.68666 -3.99 2.06 -5.41 s3.1466 -2.13 5.32 -2.13 z M26.024 5.48 c2.1066 0 3.8634 0.69998 5.27 2.1 s2.11 3.18 2.11 5.34 c0 1.3733 -0.31334 2.63 -0.94 3.77 s-1.51 2.0366 -2.65 2.69 s-2.4034 0.98 -3.79 0.98 c-1.3733 0 -2.6266 -0.32334 -3.76 -0.97 s-2.02 -1.54 -2.66 -2.68 s-0.96 -2.4034 -0.96 -3.79 c0 -2.1066 0.69 -3.8734 2.07 -5.3 s3.15 -2.14 5.31 -2.14 z M20.684 12.92 c0 1.6 0.49998 2.94 1.5 4.02 s2.28 1.62 3.84 1.62 c1.5333 0 2.8066 -0.53334 3.82 -1.6 s1.52 -2.4134 1.52 -4.04 c0 -1.6133 -0.5 -2.9566 -1.5 -4.03 s-2.2866 -1.61 -3.86 -1.61 c-1.52 0 -2.7866 0.53334 -3.8 1.6 s-1.52 2.4134 -1.52 4.04 z M42.30800000000001 5.84 l7.8 11.64 l0.04 0 l0 -11.64 l1.92 0 l0 14.16 l-2.44 0 l-7.88 -11.64 l-0.04 0 l0 11.64 l-1.92 0 l0 -14.16 l2.52 0 z M61.852000000000004 5.84 l7.8 11.64 l0.04 0 l0 -11.64 l1.92 0 l0 14.16 l-2.44 0 l-7.88 -11.64 l-0.04 0 l0 11.64 l-1.92 0 l0 -14.16 l2.52 0 z M88.01599999999999 5.84 l0 1.8 l-7.22 0 l0 4.22 l6.72 0 l0 1.8 l-6.72 0 l0 4.54 l7.58 0 l0 1.8 l-9.5 0 l0 -14.16 l9.14 0 z M101.22 5.48 c1 0 1.9367 0.18664 2.81 0.55998 s1.59 0.92 2.15 1.64 l-1.6 1.22 c-0.86666 -1.08 -2.0066 -1.62 -3.42 -1.62 c-1.5333 0 -2.7966 0.54666 -3.79 1.64 s-1.49 2.4666 -1.49 4.12 c0 1.6 0.49 2.92 1.47 3.96 s2.25 1.56 3.81 1.56 s2.7934 -0.63334 3.7 -1.9 l1.62 1.22 c-0.56 0.74666 -1.3067 1.3467 -2.24 1.8 s-1.9733 0.68 -3.12 0.68 c-1.36 0 -2.5934 -0.33 -3.7 -0.99 s-1.98 -1.5667 -2.62 -2.72 s-0.96 -2.3634 -0.96 -3.63 c0 -2.1866 0.68666 -3.99 2.06 -5.41 s3.1466 -2.13 5.32 -2.13 z M121.86400000000002 5.84 l0 1.8 l-4.56 0 l0 12.36 l-1.92 0 l0 -12.36 l-4.56 0 l0 -1.8 l11.04 0 z M129.448 5.84 l0 14.16 l-1.92 0 l0 -14.16 l1.92 0 z M139.23200000000003 5.84 l7.8 11.64 l0.04 0 l0 -11.64 l1.92 0 l0 14.16 l-2.44 0 l-7.88 -11.64 l-0.04 0 l0 11.64 l-1.92 0 l0 -14.16 l2.52 0 z M162.77600000000004 5.48 c2.36 0 4.1134 0.6133 5.26 1.84 l-1.36 1.46 c-1.0533 -1 -2.36 -1.5 -3.92 -1.5 s-2.84 0.53666 -3.84 1.61 s-1.5 2.4166 -1.5 4.03 c0 1.6267 0.53 2.9734 1.59 4.04 s2.3634 1.6 3.91 1.6 c1.4667 0 2.6266 -0.24666 3.48 -0.74 l0 -3.94 l-3.14 0 l0 -1.8 l5.06 0 l0 6.98 c-0.69334 0.41334 -1.53 0.73334 -2.51 0.96 s-1.93 0.34 -2.85 0.34 c-2.2266 0 -4.0466 -0.69334 -5.46 -2.08 s-2.12 -3.1734 -2.12 -5.36 c0 -2.1066 0.69666 -3.8734 2.09 -5.3 s3.1634 -2.14 5.31 -2.14 z M193.76400000000004 5.84 l0 1.8 l-7.22 0 l0 4.22 l6.72 0 l0 1.8 l-6.72 0 l0 4.54 l7.58 0 l0 1.8 l-9.5 0 l0 -14.16 l9.14 0 z M201.44800000000004 5.84 l3.68 5.44 l3.64 -5.44 l2.4 0 l-4.72 6.7 l5.2 7.46 l-2.52 0 l-4.06 -6.14 l-4.08 6.14 l-2.38 0 l5.14 -7.44 l-4.76 -6.72 l2.46 0 z M222.13200000000003 5.84 c1.3733 0 2.4566 0.34 3.25 1.02 s1.19 1.66 1.19 2.94 c0 1.24 -0.39334 2.21 -1.18 2.91 s-1.8733 1.05 -3.26 1.05 l-3.16 0 l0 6.24 l-1.92 0 l0 -14.16 l5.08 0 z M221.57200000000003 12.08 c1 0 1.7433 -0.18336 2.23 -0.55002 s0.73 -0.94332 0.73 -1.73 c0 -1.52 -0.98666 -2.28 -2.96 -2.28 l-2.6 0 l0 4.56 l2.6 0 z M241.67600000000004 5.84 l0 1.8 l-7.22 0 l0 4.22 l6.72 0 l0 1.8 l-6.72 0 l0 4.54 l7.58 0 l0 1.8 l-9.5 0 l0 -14.16 l9.14 0 z M253.46000000000004 5.84 c1.3867 0 2.4734 0.34666 3.26 1.04 s1.18 1.6667 1.18 2.92 c0 0.94666 -0.32334 1.7733 -0.97 2.48 s-1.4767 1.1267 -2.49 1.26 l-0.02 0 l4.02 6.46 l-2.4 0 l-3.6 -6.24 l-2.14 0 l0 6.24 l-1.92 0 l0 -14.16 l5.08 0 z M252.90000000000003 12.08 c1 0 1.7433 -0.18336 2.23 -0.55002 s0.73 -0.94332 0.73 -1.73 c0 -1.52 -0.98666 -2.28 -2.96 -2.28 l-2.6 0 l0 4.56 l2.6 0 z M273.30400000000003 5.84 l0 1.8 l-4.56 0 l0 12.36 l-1.92 0 l0 -12.36 l-4.56 0 l0 -1.8 l11.04 0 z M283.028 5.48 c1.84 0 3.2 0.54006 4.08 1.6201 l-1.56 1.42 c-0.24 -0.37334 -0.58 -0.67334 -1.02 -0.9 s-0.94666 -0.34 -1.52 -0.34 c-0.82666 0 -1.49 0.20334 -1.99 0.61 s-0.75 0.93 -0.75 1.57 c0 1.0667 0.70666 1.8133 2.12 2.24 l1.78 0.58 c1 0.32 1.7633 0.76666 2.29 1.34 s0.79 1.36 0.79 2.36 c0 1.3067 -0.46334 2.3634 -1.39 3.17 s-2.1034 1.21 -3.53 1.21 c-2.04 0 -3.5466 -0.65334 -4.52 -1.96 l1.58 -1.36 c0.30666 0.48 0.72666 0.85334 1.26 1.12 s1.1133 0.4 1.74 0.4 c0.78666 0 1.4533 -0.22666 2 -0.68 s0.82 -1.0133 0.82 -1.68 c0 -0.49334 -0.16666 -0.90668 -0.5 -1.24 s-0.93334 -0.63334 -1.8 -0.9 l-1.26 -0.42 c-1.2667 -0.42666 -2.1534 -0.97 -2.66 -1.63 s-0.76 -1.51 -0.76 -2.55 c0 -1.1067 0.44666 -2.0466 1.34 -2.82 s2.0466 -1.16 3.46 -1.16 z M312.33600000000007 5.84 l0 1.8 l-4.56 0 l0 12.36 l-1.92 0 l0 -12.36 l-4.56 0 l0 -1.8 l11.04 0 z M324.50000000000006 5.48 c2.1066 0 3.8634 0.69998 5.27 2.1 s2.11 3.18 2.11 5.34 c0 1.3733 -0.31334 2.63 -0.94 3.77 s-1.51 2.0366 -2.65 2.69 s-2.4034 0.98 -3.79 0.98 c-1.3733 0 -2.6266 -0.32334 -3.76 -0.97 s-2.02 -1.54 -2.66 -2.68 s-0.96 -2.4034 -0.96 -3.79 c0 -2.1066 0.69 -3.8734 2.07 -5.3 s3.15 -2.14 5.31 -2.14 z M319.1600000000001 12.92 c0 1.6 0.49998 2.94 1.5 4.02 s2.28 1.62 3.84 1.62 c1.5333 0 2.8066 -0.53334 3.82 -1.6 s1.52 -2.4134 1.52 -4.04 c0 -1.6133 -0.5 -2.9566 -1.5 -4.03 s-2.2866 -1.61 -3.86 -1.61 c-1.52 0 -2.7866 0.53334 -3.8 1.6 s-1.52 2.4134 -1.52 4.04 z M356.5880000000001 5.84 l0 1.8 l-7.22 0 l0 4.22 l6.72 0 l0 1.8 l-6.72 0 l0 4.54 l7.58 0 l0 1.8 l-9.5 0 l0 -14.16 l9.14 0 z M365.2120000000001 5.84 l0 12.36 l6.5 0 l0 1.8 l-8.42 0 l0 -14.16 l1.92 0 z M386.4360000000001 5.84 l0 1.8 l-7.22 0 l0 4.22 l6.72 0 l0 1.8 l-6.72 0 l0 4.54 l7.58 0 l0 1.8 l-9.5 0 l0 -14.16 l9.14 0 z M393.42000000000013 5.84 l4.16 11.52 l0.04 0 l4.32 -11.52 l2.1 0 l-5.58 14.16 l-1.8 0 l-5.46 -14.16 l2.22 0 z M414.6240000000001 5.84 l6.06 14.16 l-2.24 0 l-1.42 -3.5 l-6.74 0 l-1.4 3.5 l-2.24 0 l6.24 -14.16 l1.74 0 z M410.96400000000006 14.82 l5.36 0 l-2.64 -6.5 l-0.04 0 z M433.7480000000001 5.84 l0 1.8 l-4.56 0 l0 12.36 l-1.92 0 l0 -12.36 l-4.56 0 l0 -1.8 l11.04 0 z M448.5520000000001 5.84 l0 1.8 l-7.22 0 l0 4.22 l6.72 0 l0 1.8 l-6.72 0 l0 4.54 l7.58 0 l0 1.8 l-9.5 0 l0 -14.16 l9.14 0 z M472.22000000000014 8.44 l-3.42 11.56 l-2.02 0 l-4.14 -14.16 l2 0 l3.12 11.32 l0.04 0 l3.34 -11.32 l2.2 0 l3.34 11.32 l0.04 0 l3.12 -11.32 l2 0 l-4.12 14.16 l-2.02 0 l-3.44 -11.56 l-0.04 0 z M493.80400000000014 5.48 c2.1066 0 3.8634 0.69998 5.27 2.1 s2.11 3.18 2.11 5.34 c0 1.3733 -0.31334 2.63 -0.94 3.77 s-1.51 2.0366 -2.65 2.69 s-2.4034 0.98 -3.79 0.98 c-1.3733 0 -2.6266 -0.32334 -3.76 -0.97 s-2.02 -1.54 -2.66 -2.68 s-0.96 -2.4034 -0.96 -3.79 c0 -2.1066 0.69 -3.8734 2.07 -5.3 s3.15 -2.14 5.31 -2.14 z M488.46400000000017 12.92 c0 1.6 0.49998 2.94 1.5 4.02 s2.28 1.62 3.84 1.62 c1.5333 0 2.8066 -0.53334 3.82 -1.6 s1.52 -2.4134 1.52 -4.04 c0 -1.6133 -0.5 -2.9566 -1.5 -4.03 s-2.2866 -1.61 -3.86 -1.61 c-1.52 0 -2.7866 0.53334 -3.8 1.6 s-1.52 2.4134 -1.52 4.04 z M512.6480000000001 5.84 c1.3867 0 2.4734 0.34666 3.26 1.04 s1.18 1.6667 1.18 2.92 c0 0.94666 -0.32334 1.7733 -0.97 2.48 s-1.4767 1.1267 -2.49 1.26 l-0.02 0 l4.02 6.46 l-2.4 0 l-3.6 -6.24 l-2.14 0 l0 6.24 l-1.92 0 l0 -14.16 l5.08 0 z M512.0880000000002 12.08 c1 0 1.7433 -0.18336 2.23 -0.55002 s0.73 -0.94332 0.73 -1.73 c0 -1.52 -0.98666 -2.28 -2.96 -2.28 l-2.6 0 l0 4.56 l2.6 0 z M525.3320000000002 5.84 l0 6.12 l0.16 0 l6.26 -6.12 l2.68 0 l-6.84 6.54 l7.3 7.62 l-2.8 0 l-6.6 -7.08 l-0.16 0 l0 7.08 l-1.92 0 l0 -14.16 l1.92 0 z M545.0760000000001 5.84 c1.3733 0 2.4566 0.34 3.25 1.02 s1.19 1.66 1.19 2.94 c0 1.24 -0.39334 2.21 -1.18 2.91 s-1.8733 1.05 -3.26 1.05 l-3.16 0 l0 6.24 l-1.92 0 l0 -14.16 l5.08 0 z M544.5160000000002 12.08 c1 0 1.7433 -0.18336 2.23 -0.55002 s0.73 -0.94332 0.73 -1.73 c0 -1.52 -0.98666 -2.28 -2.96 -2.28 l-2.6 0 l0 4.56 l2.6 0 z M557.4000000000002 5.84 l0 12.36 l6.5 0 l0 1.8 l-8.42 0 l0 -14.16 l1.92 0 z M575.6640000000002 5.84 l6.06 14.16 l-2.24 0 l-1.42 -3.5 l-6.74 0 l-1.4 3.5 l-2.24 0 l6.24 -14.16 l1.74 0 z M572.0040000000002 14.82 l5.36 0 l-2.64 -6.5 l-0.04 0 z M593.6880000000002 5.48 c1 0 1.9367 0.18664 2.81 0.55998 s1.59 0.92 2.15 1.64 l-1.6 1.22 c-0.86666 -1.08 -2.0066 -1.62 -3.42 -1.62 c-1.5333 0 -2.7966 0.54666 -3.79 1.64 s-1.49 2.4666 -1.49 4.12 c0 1.6 0.49 2.92 1.47 3.96 s2.25 1.56 3.81 1.56 s2.7934 -0.63334 3.7 -1.9 l1.62 1.22 c-0.56 0.74666 -1.3067 1.3467 -2.24 1.8 s-1.9733 0.68 -3.12 0.68 c-1.36 0 -2.5934 -0.33 -3.7 -0.99 s-1.98 -1.5667 -2.62 -2.72 s-0.96 -2.3634 -0.96 -3.63 c0 -2.1866 0.68666 -3.99 2.06 -5.41 s3.1466 -2.13 5.32 -2.13 z M614.0320000000002 5.84 l0 1.8 l-7.22 0 l0 4.22 l6.72 0 l0 1.8 l-6.72 0 l0 4.54 l7.58 0 l0 1.8 l-9.5 0 l0 -14.16 l9.14 0 z M624.7960000000002 5.48 c1.84 0 3.2 0.54006 4.08 1.6201 l-1.56 1.42 c-0.24 -0.37334 -0.58 -0.67334 -1.02 -0.9 s-0.94666 -0.34 -1.52 -0.34 c-0.82666 0 -1.49 0.20334 -1.99 0.61 s-0.75 0.93 -0.75 1.57 c0 1.0667 0.70666 1.8133 2.12 2.24 l1.78 0.58 c1 0.32 1.7633 0.76666 2.29 1.34 s0.79 1.36 0.79 2.36 c0 1.3067 -0.46334 2.3634 -1.39 3.17 s-2.1034 1.21 -3.53 1.21 c-2.04 0 -3.5466 -0.65334 -4.52 -1.96 l1.58 -1.36 c0.30666 0.48 0.72666 0.85334 1.26 1.12 s1.1133 0.4 1.74 0.4 c0.78666 0 1.4533 -0.22666 2 -0.68 s0.82 -1.0133 0.82 -1.68 c0 -0.49334 -0.16666 -0.90668 -0.5 -1.24 s-0.93334 -0.63334 -1.8 -0.9 l-1.26 -0.42 c-1.2667 -0.42666 -2.1534 -0.97 -2.66 -1.63 s-0.76 -1.51 -0.76 -2.55 c0 -1.1067 0.44666 -2.0466 1.34 -2.82 s2.0466 -1.16 3.46 -1.16 z"></path></g>
			</g>
		</svg>
	